<?xml version="1.0" encoding="UTF-8"?> <svg xmlns="http://www.w3.org/2000/svg" width="198" height="33" viewBox="0 0 198 33" fill="none"><g clip-path="url(#clip0_896_4874)"><path fill-rule="evenodd" clip-rule="evenodd" d="M16.6354 3.36099C16.4235 3.57522 16.0791 3.57515 15.8673 3.36085C15.2026 2.68859 13.8365 1.30794 13.0793 0.550774C12.1316 -0.396932 10.5248 -0.0758894 10.014 1.16323L7.66429 6.8636C7.51471 7.2265 7.2265 7.51471 6.8636 7.66429L1.16322 10.014C-0.0758903 10.5248 -0.396932 12.1316 0.550776 13.0793C1.30953 13.8381 2.68857 15.2037 3.36003 15.8682C3.57412 16.08 3.57412 16.4242 3.36 16.6361C2.6885 17.3005 1.30931 18.6661 0.550797 19.4246C-0.396911 20.3723 -0.0758681 21.9792 1.16325 22.4899L6.86362 24.8397C7.22652 24.9892 7.51473 25.2774 7.66432 25.6404L10.0141 31.3408C10.5248 32.5798 12.1317 32.901 13.0794 31.9533C13.8379 31.1947 15.2036 29.8154 15.8681 29.1438C16.0799 28.9297 16.4241 28.9297 16.636 29.1438C17.3005 29.8154 18.6662 31.1947 19.4247 31.9533C20.3724 32.901 21.9792 32.5798 22.49 31.3408L24.8397 25.6404C24.9894 25.2774 25.2776 24.9892 25.6404 24.8397L31.3408 22.4899C32.58 21.9792 32.901 20.3723 31.9533 19.4246C31.1947 18.6661 29.8154 17.3004 29.144 16.636C28.9297 16.4241 28.9297 16.0799 29.144 15.868C29.8154 15.2036 31.1947 13.8378 31.9533 13.0793C32.901 12.1316 32.5798 10.5248 31.3408 10.0141L25.6404 7.66429C25.2776 7.51471 24.9894 7.2265 24.8397 6.8636L22.49 1.16323C21.9792 -0.0758872 20.3724 -0.396929 19.4247 0.550779C18.6662 1.30926 17.3001 2.68911 16.6354 3.36099ZM16.502 6.75201C16.4293 6.48817 16.0557 6.48673 15.981 6.74997L14.4701 12.0725C14.1225 13.2971 13.1599 14.2508 11.9322 14.5871L6.79905 15.9931C6.53386 16.0657 6.53359 16.4418 6.79868 16.5148L12.0126 17.9508C13.2478 18.2911 14.2129 19.2562 14.5532 20.4914L15.9912 25.7128C16.0642 25.9776 16.4399 25.9776 16.5128 25.7128L17.9509 20.4914C18.2911 19.2562 19.2562 18.2911 20.4915 17.9508L25.7125 16.5128C25.9776 16.4398 25.9776 16.0642 25.7125 15.9912L20.4915 14.5532C19.2562 14.2129 18.2911 13.2478 17.9509 12.0125L16.502 6.75201Z" fill="#FF6A3D"></path><path d="M52.343 28.9092H41.6601V3.43359H51.7082C54.4113 3.43359 56.468 4.01313 57.8783 5.17217C59.3119 6.30759 60.0288 7.96338 60.0288 10.1396C60.0288 11.4642 59.7115 12.5996 59.077 13.5458C58.4659 14.492 57.5844 15.1897 56.4328 15.6392C57.8194 16.0886 58.9005 16.8574 59.6763 17.9455C60.4518 19.0336 60.8398 20.3227 60.8398 21.8129C60.8398 24.0128 60.076 25.7513 58.548 27.0288C57.0437 28.2822 54.9753 28.9092 52.343 28.9092ZM45.9967 7.26557V13.9715H51.2852C52.7424 13.9715 53.8471 13.6877 54.5993 13.12C55.375 12.5523 55.7628 11.7126 55.7628 10.6008C55.7628 9.51272 55.3867 8.68483 54.6345 8.11713C53.8823 7.54943 52.766 7.26557 51.2852 7.26557H45.9967ZM52.096 17.8035H45.9967V25.0772H52.096C53.4593 25.0772 54.5288 24.7578 55.3045 24.1192C56.1036 23.457 56.5033 22.558 56.5033 21.4226C56.5033 20.3109 56.1036 19.4357 55.3045 18.797C54.5288 18.1347 53.4593 17.8035 52.096 17.8035Z" fill="#0E2140"></path><path d="M78.1341 12.7653C78.9096 13.6168 79.4972 14.6339 79.8969 15.8167C80.2963 16.9757 80.4962 18.2412 80.4962 19.6131C80.4962 20.9851 80.2963 22.2624 79.8969 23.4452C79.4972 24.6041 78.9096 25.6094 78.1341 26.4609C77.3114 27.3836 76.3359 28.0932 75.2078 28.59C74.1029 29.0631 72.8925 29.2996 71.5763 29.2996C70.2601 29.2996 69.0378 29.0631 67.9095 28.59C66.8049 28.0932 65.8412 27.3836 65.0185 26.4609C64.243 25.6094 63.6554 24.6041 63.2557 23.4452C62.8561 22.2624 62.6562 20.9851 62.6562 19.6131C62.6562 18.2412 62.8561 16.9757 63.2557 15.8167C63.6554 14.6339 64.243 13.6168 65.0185 12.7653C65.8412 11.8427 66.8049 11.1449 67.9095 10.6719C69.0378 10.1751 70.2601 9.92676 71.5763 9.92676C72.8925 9.92676 74.1029 10.1751 75.2078 10.6719C76.3359 11.1449 77.3114 11.8427 78.1341 12.7653ZM71.5763 13.5104C70.1425 13.5104 69.0025 14.0544 68.1563 15.1425C67.3339 16.2306 66.9225 17.7208 66.9225 19.6131C66.9225 21.5055 67.3339 22.9956 68.1563 24.0838C69.0025 25.172 70.1425 25.7159 71.5763 25.7159C73.0102 25.7159 74.1382 25.172 74.9609 24.0838C75.8071 22.9956 76.2301 21.5055 76.2301 19.6131C76.2301 17.7208 75.8071 16.2306 74.9609 15.1425C74.1382 14.0544 73.0102 13.5104 71.5763 13.5104Z" fill="#0E2140"></path><path d="M93.838 27.1353C93.2504 27.7975 92.4749 28.3178 91.5112 28.6964C90.5709 29.0512 89.5134 29.2286 88.3382 29.2286C86.5283 29.2286 85.0356 28.72 83.8604 27.703C82.6852 26.6622 82.0977 25.3375 82.0977 23.729C82.0977 22.1915 82.6031 20.9496 83.6137 20.0034C84.6243 19.0336 86.1874 18.324 88.3027 17.8746L93.415 16.8101V16.4908C93.415 15.5446 93.1447 14.835 92.6042 14.3619C92.0872 13.8652 91.2997 13.6168 90.242 13.6168C89.2783 13.6168 88.5026 13.8415 87.915 14.291C87.351 14.7167 86.9396 15.4027 86.681 16.3489L82.6969 15.4264C83.1907 13.7469 84.1191 12.4104 85.4822 11.417C86.8691 10.4235 88.5145 9.92676 90.4182 9.92676C92.7217 9.92676 94.4844 10.4826 95.7068 11.5944C96.9289 12.6825 97.5401 14.2673 97.5401 16.3489V24.3676C97.5401 24.8879 97.6577 25.243 97.8926 25.432C98.1512 25.6213 98.5742 25.6804 99.1618 25.6094V28.9093C97.6577 29.0748 96.4706 29.0157 95.601 28.7319C94.7548 28.448 94.1672 27.9158 93.838 27.1353ZM88.9727 25.8223C90.242 25.8223 91.2997 25.503 92.1458 24.8644C92.992 24.2257 93.415 23.3861 93.415 22.3452V20.0744L89.431 20.926C88.2794 21.1862 87.4684 21.5173 86.9984 21.9194C86.5283 22.3216 86.2932 22.8656 86.2932 23.5516C86.2932 24.2612 86.5283 24.817 86.9984 25.2192C87.492 25.6213 88.15 25.8223 88.9727 25.8223Z" fill="#0E2140"></path><path d="M111.124 10.1748C111.312 10.1748 111.5 10.1866 111.688 10.2103C111.876 10.2103 112.088 10.2221 112.323 10.2458V14.5035C112.041 14.4562 111.782 14.4326 111.547 14.4326C111.312 14.4089 111.054 14.3971 110.772 14.3971C109.361 14.3971 108.221 14.8347 107.352 15.7099C106.482 16.5614 106.047 17.6969 106.047 19.1161V28.909H101.816V10.2812H106.047V13.0488C106.47 12.1736 107.128 11.4758 108.021 10.9554C108.938 10.435 109.972 10.1748 111.124 10.1748Z" fill="#0E2140"></path><path d="M121.183 29.2995C119.938 29.2995 118.786 29.0511 117.728 28.5544C116.694 28.0339 115.813 27.2888 115.084 26.319C114.426 25.4439 113.921 24.4385 113.568 23.3032C113.215 22.1441 113.039 20.9141 113.039 19.6131C113.039 18.3121 113.215 17.0939 113.568 15.9585C113.921 14.7995 114.426 13.7823 115.084 12.9071C115.813 11.9373 116.694 11.204 117.728 10.7073C118.786 10.1869 119.938 9.92669 121.183 9.92669C122.288 9.92669 123.287 10.1277 124.18 10.5299C125.097 10.932 125.873 11.5115 126.507 12.2684V3.43359H130.738V28.9092H126.507V26.9578C125.873 27.7146 125.097 28.2942 124.18 28.6963C123.287 29.0985 122.288 29.2995 121.183 29.2995ZM126.613 20.1808V19.0809C126.613 17.4251 126.19 16.1123 125.344 15.1424C124.521 14.149 123.416 13.6522 122.03 13.6522C120.549 13.6522 119.385 14.1844 118.539 15.2489C117.716 16.3133 117.305 17.7681 117.305 19.6131C117.305 21.4581 117.716 22.9129 118.539 23.9773C119.385 25.0417 120.549 25.5739 122.03 25.5739C123.393 25.5739 124.497 25.0891 125.344 24.1192C126.19 23.1258 126.613 21.8129 126.613 20.1808Z" fill="#0E2140"></path><path d="M145.217 27.1353C144.629 27.7975 143.854 28.3178 142.89 28.6964C141.95 29.0512 140.892 29.2286 139.717 29.2286C137.907 29.2286 136.415 28.72 135.239 27.703C134.064 26.6622 133.477 25.3375 133.477 23.729C133.477 22.1915 133.982 20.9496 134.993 20.0034C136.003 19.0336 137.566 18.324 139.682 17.8746L144.794 16.8101V16.4908C144.794 15.5446 144.524 14.835 143.983 14.3619C143.466 13.8652 142.678 13.6168 141.621 13.6168C140.657 13.6168 139.881 13.8415 139.294 14.291C138.73 14.7167 138.319 15.4027 138.06 16.3489L134.076 15.4264C134.57 13.7469 135.498 12.4104 136.861 11.417C138.248 10.4235 139.893 9.92676 141.797 9.92676C144.101 9.92676 145.863 10.4826 147.086 11.5944C148.308 12.6825 148.919 14.2673 148.919 16.3489V24.3676C148.919 24.8879 149.036 25.243 149.271 25.432C149.53 25.6213 149.953 25.6804 150.541 25.6094V28.9093C149.036 29.0748 147.85 29.0157 146.98 28.7319C146.134 28.448 145.546 27.9158 145.217 27.1353ZM140.352 25.8223C141.621 25.8223 142.678 25.503 143.525 24.8644C144.371 24.2257 144.794 23.3861 144.794 22.3452V20.0744L140.81 20.926C139.658 21.1862 138.847 21.5173 138.377 21.9194C137.907 22.3216 137.672 22.8656 137.672 23.5516C137.672 24.2612 137.907 24.817 138.377 25.2192C138.871 25.6213 139.529 25.8223 140.352 25.8223Z" fill="#0E2140"></path><path d="M168.849 26.319C168.121 27.2888 167.228 28.0339 166.17 28.5544C165.136 29.0511 163.996 29.2995 162.75 29.2995C161.645 29.2995 160.635 29.0985 159.718 28.6963C158.825 28.2942 158.061 27.7146 157.426 26.9578V28.9092H153.195V3.43359H157.426V12.2684C158.061 11.5115 158.825 10.932 159.718 10.5299C160.635 10.1277 161.645 9.92669 162.75 9.92669C163.996 9.92669 165.136 10.1869 166.17 10.7073C167.228 11.204 168.121 11.9373 168.849 12.9071C169.508 13.7823 170.013 14.7995 170.365 15.9585C170.718 17.0939 170.894 18.3121 170.894 19.6131C170.894 20.9141 170.718 22.1441 170.365 23.3032C170.013 24.4385 169.508 25.4439 168.849 26.319ZM161.904 13.6522C160.517 13.6522 159.401 14.149 158.554 15.1424C157.732 16.1123 157.32 17.4251 157.32 19.0809V20.1808C157.32 21.8129 157.744 23.1258 158.59 24.1192C159.436 25.0891 160.541 25.5739 161.904 25.5739C163.385 25.5739 164.536 25.0417 165.359 23.9773C166.205 22.9129 166.628 21.4581 166.628 19.6131C166.628 17.7681 166.205 16.3133 165.359 15.2489C164.536 14.1844 163.385 13.6522 161.904 13.6522Z" fill="#0E2140"></path><path d="M173.812 3.43359H178.043V28.9092H173.812V3.43359Z" fill="#0E2140"></path><path d="M189.959 29.2996C188.643 29.2996 187.421 29.0631 186.293 28.59C185.164 28.0932 184.189 27.3953 183.366 26.4964C182.591 25.6213 181.991 24.6041 181.568 23.4452C181.169 22.2624 180.969 20.9851 180.969 19.6131C180.969 18.3122 181.169 17.0822 181.568 15.9231C181.991 14.7404 182.579 13.7114 183.331 12.8362C184.153 11.89 185.117 11.1686 186.222 10.6719C187.327 10.1751 188.514 9.92676 189.783 9.92676C192.298 9.92676 194.296 10.7783 195.776 12.4814C197.257 14.1608 197.998 16.3725 197.998 19.1164V20.5357H185.023C185.188 22.1205 185.705 23.3742 186.575 24.2967C187.468 25.2192 188.596 25.6804 189.959 25.6804C191.017 25.6804 191.922 25.4204 192.674 24.8998C193.45 24.3557 193.978 23.6226 194.26 22.7L197.892 24.0838C197.234 25.7159 196.2 26.9934 194.789 27.9158C193.402 28.8383 191.793 29.2996 189.959 29.2996ZM189.748 13.5104C188.619 13.5104 187.656 13.8415 186.857 14.5038C186.081 15.1662 185.54 16.1123 185.235 17.3424H193.732C193.708 16.1833 193.344 15.2608 192.639 14.5748C191.934 13.8652 190.97 13.5104 189.748 13.5104Z" fill="#0E2140"></path></g><defs><clipPath id="clip0_896_4874"><rect width="198" height="32.504" fill="white"></rect></clipPath></defs></svg> 